<svg width="120" height="24" viewBox="0 0 120 24" fill="none" xmlns="http://www.w3.org/2000/svg">
<path d="M0.971015 23V1.1H14.471V4.94H5.38101V9.86H13.421V13.7H5.38101V19.16H14.471V23H0.971015Z" fill="#FAA43C"/>
<path d="M20.2493 15.2V11H29.8493V15.2H20.2493ZM42.6476 23.3C41.1876 23.3 39.9076 23.03 38.8076 22.49C37.7076 21.93 36.8476 21.16 36.2276 20.18C35.6276 19.18 35.3276 18.02 35.3276 16.7V7.4C35.3276 6.06 35.6276 4.9 36.2276 3.92C36.8476 2.94 37.7076 2.18 38.8076 1.64C39.9076 1.08 41.1876 0.8 42.6476 0.8C44.1276 0.8 45.4076 1.08 46.4876 1.64C47.5876 2.18 48.4376 2.94 49.0376 3.92C49.6576 4.9 49.9676 6.06 49.9676 7.4H45.4676C45.4676 6.52 45.2176 5.85 44.7176 5.39C44.2376 4.93 43.5476 4.7 42.6476 4.7C41.7476 4.7 41.0476 4.93 40.5476 5.39C40.0676 5.85 39.8276 6.52 39.8276 7.4V16.7C39.8276 17.56 40.0676 18.23 40.5476 18.71C41.0476 19.17 41.7476 19.4 42.6476 19.4C43.5476 19.4 44.2376 19.17 44.7176 18.71C45.2176 18.23 45.4676 17.56 45.4676 16.7H49.9676C49.9676 18.02 49.6576 19.18 49.0376 20.18C48.4376 21.16 47.5876 21.93 46.4876 22.49C45.4076 23.03 44.1276 23.3 42.6476 23.3ZM53.4659 23V6.5H57.6659V9.65H58.8059L57.5159 11.57C57.5159 9.79 57.9259 8.45 58.7459 7.55C59.5659 6.65 60.7659 6.2 62.3459 6.2C64.1659 6.2 65.5759 6.75 66.5759 7.85C67.5959 8.95 68.1059 10.5 68.1059 12.5V13.85H63.3059V12.8C63.3059 11.9 63.0559 11.2 62.5559 10.7C62.0759 10.2 61.4259 9.95 60.6059 9.95C59.7459 9.95 59.0859 10.2 58.6259 10.7C58.1859 11.2 57.9659 11.9 57.9659 12.8V23H53.4659ZM77.4841 23.3C76.0241 23.3 74.7541 23.03 73.6741 22.49C72.5941 21.93 71.7541 21.16 71.1541 20.18C70.5741 19.18 70.2841 18.02 70.2841 16.7V12.8C70.2841 11.48 70.5741 10.33 71.1541 9.35C71.7541 8.35 72.5941 7.58 73.6741 7.04C74.7541 6.48 76.0241 6.2 77.4841 6.2C78.9641 6.2 80.2341 6.48 81.2941 7.04C82.3741 7.58 83.2041 8.35 83.7841 9.35C84.3841 10.33 84.6841 11.48 84.6841 12.8V16.7C84.6841 18.02 84.3841 19.18 83.7841 20.18C83.2041 21.16 82.3741 21.93 81.2941 22.49C80.2341 23.03 78.9641 23.3 77.4841 23.3ZM77.4841 19.4C78.3641 19.4 79.0341 19.17 79.4941 18.71C79.9541 18.23 80.1841 17.56 80.1841 16.7V12.8C80.1841 11.92 79.9541 11.25 79.4941 10.79C79.0341 10.33 78.3641 10.1 77.4841 10.1C76.6241 10.1 75.9541 10.33 75.4741 10.79C75.0141 11.25 74.7841 11.92 74.7841 12.8V16.7C74.7841 17.56 75.0141 18.23 75.4741 18.71C75.9541 19.17 76.6241 19.4 77.4841 19.4ZM88.6624 23L86.2624 6.5H89.8624L91.0624 15.5C91.1624 16.16 91.2424 16.91 91.3024 17.75C91.3824 18.59 91.4424 19.28 91.4824 19.82C91.5424 19.28 91.6224 18.6 91.7224 17.78C91.8424 16.94 91.9524 16.18 92.0524 15.5L93.4324 6.5H96.5524L97.8724 15.5C97.9724 16.18 98.0724 16.94 98.1724 17.78C98.2924 18.62 98.3824 19.31 98.4424 19.85C98.4824 19.29 98.5424 18.59 98.6224 17.75C98.7224 16.89 98.8124 16.14 98.8924 15.5L100.152 6.5H103.662L101.232 23H96.7324L95.5024 13.7C95.4224 13.14 95.3324 12.47 95.2324 11.69C95.1324 10.91 95.0524 10.26 94.9924 9.74C94.9124 10.26 94.8224 10.91 94.7224 11.69C94.6224 12.47 94.5324 13.14 94.4524 13.7L93.1924 23H88.6624ZM110.731 23.3C109.071 23.3 107.741 22.72 106.741 21.56C105.741 20.4 105.241 18.83 105.241 16.85V12.65C105.241 10.69 105.741 9.13 106.741 7.97C107.741 6.79 109.071 6.2 110.731 6.2C112.091 6.2 113.161 6.6 113.941 7.4C114.721 8.18 115.111 9.28 115.111 10.7L114.061 9.65H115.111L114.961 5.6V1.1H119.461V23H115.111V19.85H114.061L115.111 18.8C115.111 20.22 114.721 21.33 113.941 22.13C113.161 22.91 112.091 23.3 110.731 23.3ZM112.351 19.4C113.171 19.4 113.811 19.17 114.271 18.71C114.731 18.23 114.961 17.56 114.961 16.7V12.8C114.961 11.94 114.731 11.28 114.271 10.82C113.811 10.34 113.171 10.1 112.351 10.1C111.511 10.1 110.861 10.34 110.401 10.82C109.961 11.28 109.741 11.94 109.741 12.8V16.7C109.741 17.56 109.961 18.23 110.401 18.71C110.861 19.17 111.511 19.4 112.351 19.4Z" fill="#235E7A"/>
</svg>
