<svg width="36" height="26" viewBox="0 0 36 26" fill="none" xmlns="http://www.w3.org/2000/svg">
<path d="M12.4415 14.1124L12.8729 14.1258L10.2205 15.3966C10.0991 15.4517 9.93781 15.4562 9.81001 15.4036L9.80941 15.4033L6.19589 13.9178L6.70913 13.9338L9.58478 15.1147L9.9958 15.2835L10.3965 15.0916L12.4415 14.1124ZM17.038 12.2546L16.365 12.2336L27.2556 7.01858L27.2556 7.01861L27.2623 7.01531C27.4499 6.92376 27.6062 6.96397 27.6971 7.0282L15.0706 16.2422L14.66 16.5418V17.05V21.7949V24.3748L16.3988 22.4689L18.4595 20.21L18.4602 20.2093C18.5258 20.1372 18.761 20.057 18.9669 20.1414L27.5992 24.197L28.7063 24.7171L28.996 23.5287L34.0099 2.95852L34.4329 1.22302L32.7323 1.76968L4.12549 10.9655L1.61144 11.7736L1.16232 11.7596L34.5612 1.0273L34.5612 1.02735L34.5707 1.0242C34.7223 0.973795 34.8753 1.00862 34.9669 1.07187C34.9757 1.07798 34.983 1.08366 34.9889 1.08871L29.1823 24.8974C29.1754 24.9076 29.1485 24.9394 29.0695 24.9691C28.9495 25.0143 28.8098 25.0095 28.7031 24.9579L28.7031 24.9578L28.6926 24.9529L19.4924 20.6357L18.8254 20.3227L18.3289 20.8669L14.6455 24.9034L14.6448 24.9042C14.6155 24.9364 14.5682 24.9683 14.4901 24.9864C14.4079 25.0055 14.3096 25.004 14.2179 24.9793C14.146 24.96 14.1019 24.9332 14.0801 24.9162V16.624C14.0861 16.6182 14.0946 16.6109 14.1061 16.6025L14.1067 16.6021L17.5953 14.0626L19.9543 12.3454L17.038 12.2546L17.038 12.2546ZM27.7634 7.09564C27.7633 7.09564 27.7629 7.09481 27.7622 7.09311C27.7631 7.09478 27.7635 7.09563 27.7634 7.09564ZM29.1836 24.8952C29.184 24.8943 29.1843 24.8939 29.1843 24.894L29.1836 24.8952Z" fill="#FAA43C" stroke="#FAA43C" stroke-width="2"/>
</svg>
