<svg width="39" height="26" viewBox="0 0 39 26" fill="none" xmlns="http://www.w3.org/2000/svg">
<path d="M32.5494 16.1466C33.7506 17.4714 35.0177 18.7134 36.0873 20.1873C36.5645 20.8332 37.0089 21.5122 37.3544 22.2574C37.8481 23.3338 37.4038 24.5096 36.5481 24.5759H31.2823C29.9165 24.7084 28.8304 24.0791 27.9253 23.0357C27.2013 22.1912 26.5266 21.2969 25.819 20.4357C25.5392 20.088 25.2266 19.7402 24.8646 19.4752C24.1405 18.9453 23.5152 19.1109 23.1038 19.9555C22.6924 20.8166 22.5937 21.7771 22.5443 22.7377C22.4949 24.1453 22.1165 24.5096 20.8658 24.5759C18.2 24.7249 14.0203 24.2612 11.6671 22.7377C9.59367 21.3963 7.98101 19.5084 6.58228 17.3555C3.9 13.1822 2.22152 8.85994 1.57975 3.87523C1.1519 2.81536 1.46456 2.23574 2.50127 2.21918C4.22912 2.18606 5.94051 2.18606 7.66836 2.21918C8.3595 2.23574 8.83671 2.68287 9.1 3.4281C10.038 6.01154 11.1734 8.47905 12.6051 10.7644C12.9835 11.3771 13.3785 11.9733 13.9215 12.4039C14.5304 12.8841 14.9911 12.7185 15.2873 11.9568C15.4684 11.4599 15.5506 10.9466 15.5835 10.4166C15.7316 8.61154 15.7481 6.823 15.5013 5.01791C15.3532 3.90835 14.7937 3.17969 13.8063 2.9644C13.3127 2.86504 13.3785 2.64975 13.6253 2.31854C14.0532 1.75549 14.4481 1.40771 15.238 1.40771H21.1949C22.1329 1.623 22.3468 2.0867 22.462 3.16313V10.6485C22.4456 11.0625 22.643 12.288 23.3013 12.5695C23.8278 12.7682 24.1734 12.288 24.4861 11.9071C25.9177 10.1848 26.938 8.1644 27.843 6.07778C28.2544 5.15039 28.6 4.18988 28.9291 3.24593C29.1759 2.53383 29.5709 2.18606 30.2785 2.20262H36.0215C36.1861 2.20262 36.3671 2.20262 36.5316 2.23574C37.5025 2.41791 37.7658 2.89816 37.4696 3.95803C36.9924 5.63065 36.0873 7.03829 35.1823 8.42937C34.2278 9.91982 33.2076 11.3771 32.2532 12.8841C31.3975 14.2587 31.4797 14.9542 32.5494 16.1466Z" stroke="#FAA43C" stroke-width="2"/>
</svg>
